<svg xmlns="http://www.w3.org/2000/svg" viewBox="0 0 583.2 583.2">
  <linearGradient id="a" x2="583.1703" y1="291.5842" y2="291.5842" gradientUnits="userSpaceOnUse">
    <stop offset=".01282051" stop-color="#ec3c32"/>
    <stop offset="1" stop-color="#6671e4"/>
  </linearGradient>
  <path fill="url(#a)" d="M519.6 378c-3.1-9.9-8.2-19.3-15.7-27.1-20.2-21.1-50.9-26.6-75.4-14.6-.2 0-.3-.1-.5 0-27.8 12.5-71.2-13.8-93.4-20.9-12.2-3.9-23.3-12.5-33.9-20.1 16.9 1.1 34.6 10.2 42.9 14.5 1.6.8 3 .1 2.1-1.1-7.6-8.8-13.8-17.1-17.6-24.8l21.4 19.4 2.9-3.2-27.4-24.9c-.5-2.2-.7-4.3-.6-6.4l30.9 28.1 2.9-3.2-33-30c.4-1.4.9-2.7 1.5-4l34.2 31.1 2.9-3.2L329 256c.8-1.1 1.7-2.2 2.7-3.4l35 31.8 2.9-3.2-35-31.8c.8-.9 1.8-2 2.9-3.2l35 31.8 2.9-3.2-35-31.9c.8-.9 1.8-1.9 2.7-3l35 31.8 2.9-3.2-35-31.8c.8-.9 1.6-1.7 2.4-2.7l35 31.9 2.9-3.2-35-31.8c.9-1.1 1.9-2.1 2.9-3.2l35 31.8 2.9-3.2-35-31.9 2.7-3 35 31.8 2.9-3.2-35-31.8c.9-1.1 1.9-2.1 2.9-3.2l35 31.8 2.9-3.2-35-31.8c1-1.1 1.9-2.1 2.9-3.2l35 31.9 2.9-3.2-35-31.9 2.7-3 35 31.8 2.9-3.2-35-31.8c.7-.8 1.4-1.6 2.1-2.3l35 31.8 2.9-3.2-35-31.8c1-1.1 1.9-2.1 2.9-3.2l35 31.8 2.9-3.2-35-31.8 2.7-3 35 31.9 2.9-3.2-35-31.8c1-1.1 1.9-2.1 2.9-3.2l35 31.9 2.9-3.2-35-31.9c1-1.1 1.9-2.1 2.9-3.2l35 31.9 2.9-3.2-35-31.9 2.7-3 35 31.8 2.9-3.2-35-31.8c.8-.9 1.5-1.7 2.3-2.5l35 31.8 2.9-3.2-35-31.8 2.7-3 35 31.8 2.9-3.2-35-31.8 2.4-2.7 35 31.8 2.9-3.2-35-31.9c1-1.1 1.9-2.1 2.9-3.2l35 31.8 2.9-3.2-35-31.8 2.7-3 35 31.8 2.9-3.2-35-31.8c1-1.1 1.9-2.1 2.9-3.2l35 31.9 2.9-3.2-35-31.8c1-1.1 2-2.2 2.9-3.2l35 31.8 2.9-3.2-35-31.8 2.7-3 35 31.8 2.9-3.2-35-31.8c.8-.8 1.4-1.6 2.1-2.3l35 31.8 2.9-3.2-35-31.9c1.1-1.2 2-2.2 2.9-3.2l35 31.8 2.9-3.2-35-31.8c1.5-1.7 2.4-2.6 2.4-2.6l.4-.4 35 31.8 2.9-3.2-35-31.8c1-1.1 2-2.2 2.9-3.2l35 31.8 2.9-3.2-35-31.9c1-1.1 2-2.2 2.9-3.2l35 31.8 2.9-3.2-35-31.8c1.1-1.2 1.9-2.1 2.7-3l35 31.8 2.9-3.2-35-31.8c.8-.9 1.6-1.7 2.4-2.5l34.9 31.7 2.9-3.2-34.3-31.1c1.4-.9 2.8-1.5 4.1-2.1l33 30 2.9-3.2L506.9 67c2.1-.3 4.2-.3 6.4 0l27.4 24.9 2.9-3.2-21.4-19.4c7.9 2.9 16.4 8.2 25.7 14.7 1.3.9 2.5-.1 1.5-1.6-18.8-29-59-37.8-74.6-20.6-3.3 3.7-10.5 11.5-19.7 21.6 0 0-57.1 62.8-98.8 108.6-1.7 1.9-3.4 3.8-5.1 5.6-17.2 18.8-30.9 34-35.8 39.3L275 281.4c-.2-.1-.5-.2-.7-.2-1.2-.3-3.2-1.1-6.1-2.3L144.9 16.8l67.8 229.4s.6 2.1 1.6 5.9C130.7 208.2 0 124.3 0 124.3s222 193.9 230 200.4c.3 1.9.8 3.8 1.3 5.7l-153.8 169 4.9 4.5 153.2-159c13.7 38.5 41.4 78.8 12.4 99.4-.1.1 0 .3-.1.4-26.2 18.4-31.9 57.2-12.3 88.1 20.1 31.7 59.2 43 87.2 25.3 17.2-10.9 25.7-33 32.4-54.3-5.7-17.1-10.5-23.2-18.2-35.4-5.1-8-11.4-14.6-18.4-19.9-15.2-14.4-59.6-122.2-55.1-132.2 54.1-.8 123.3 41.3 131.2 80.5.1 0 .2-.1.3-.1 1.3 15.1 7.5 29.5 18.3 40.8 21.8 22.8 56 27.6 81.3 11.6 3.3-2.1 6.4-4.6 9.3-7.3 10.3-9.9 16.3-22.9 17.9-37 5.9-2.1 14.4-4.2 22.5-2.4 29.9 7.8 38-16.8 38.6-24.5.9-7.5-42.3 14-63.3.1zm-291.5-79.9c-3.9-6-2.1-14.1 4-18 6.1-3.8 14.1-2 18 4 3.9 6.1 2.1 14.1-4 18-6.1 3.9-14.2 2.1-18-4zm53 157.3c1.5.2 3 .3 4.5.4 12.9 2.1 25.8 10.3 34.2 23.5 14.1 22.1 10.5 49.6-7.9 61.3-18.4 11.7-44.8 3.2-58.9-18.9-14-22.1-10.5-49.7 7.9-61.3 6.1-3.9 13.1-5.3 20.2-5zM490 426.7c-1.9 1.8-3.9 3.4-6.1 4.8-17.1 10.8-40.4 7.3-55.5-8.5-8.4-8.8-13.1-20.1-13.2-31.9-.1-11.6 4.3-22.1 12.3-29.8 1.9-1.8 3.9-3.4 6.1-4.8 17.1-10.8 40.4-7.3 55.4 8.4 8.4 8.8 13.1 20.2 13.2 31.9.1 11.6-4.3 22.3-12.2 29.9z"/>
</svg>
