<svg xmlns="http://www.w3.org/2000/svg" viewBox="0 0 574.5 574.5">
  <linearGradient id="a" x1="66.6238" x2="507.8749" y1="287.2498" y2="287.2498" gradientUnits="userSpaceOnUse">
    <stop offset=".01282051" stop-color="#ec3c32"/>
    <stop offset="1" stop-color="#6671e4"/>
  </linearGradient>
  <path fill="url(#a)" d="M287.4 501.1V374.6h106.3c2.4.7 4.6.8 6.5 0 26.5-136 125.6-307.4 104.9-347.9-20.7-40.5-82.1-30.1-100.2-1.1-13.8 22.2-25.3 36.9-42.5 153.6-36.6-12-105-28.1-150.3-1.7-44 25.6-60.2 68.3-66 92.4-30.9-2.7-54.7-1.9-63.5 5-35.6 28.3 0 99.5 0 99.5h46.1v39.7H77.9V438h61.6v-63.5h110.9V501c-74 4.2-136 33.3-162.9 73.4h362.8c-26.9-40-88.9-69.1-162.9-73.3zm-53.3-285.6c30.8-17.9 89.9-3.3 122.2 8-3.2 24.1-6.5 51.7-10.1 83.1-42.6-10-103.4-23.3-156.3-31.2 4.7-17.1 16.5-43.8 44.2-59.9z"/>
</svg>
