<svg xmlns="http://www.w3.org/2000/svg" viewBox="0 0 384.1 384.1">
  <linearGradient id="a" gradientUnits="userSpaceOnUse" x1="71.1487" y1="192.065" x2="312.9805" y2="192.065">
    <stop offset=".01282051" stop-color="#ec3c32"/>
    <stop offset="1" stop-color="#6671e4"/>
  </linearGradient>
  <path d="M304.7 335.2s-17.3-33.2-23.5-60.3c-7.7-38.5 57-91.4 20.6-133.4-6-5.3 12.1-34.3 7.7-41.9-2.9 8.5-12.9 22-12.9 22s-.5-40.9-8.5-49.9c2 16.1.8 32.6.8 32.6S276.6 69.2 264.3 64c12.8 12.4 12.1 31.6 12.1 31.6S255.9 56.2 227.2 57c20.9 11.4 26.1 27.6 26.1 27.6S117.6 66.2 142.3 14c-19.1 4.8-19.1 57.3-19.1 57.3S104.4 39.7 135.6 0c-65 40.8-40 114-40 114s-14-1.1-21.3-52.6C60 124.6 100 157.7 100 157.7s-15.8 27.9-7 41.2c8.8 13.2-11.8 43-11.4 52.6.4 9.5 15.4 8.4 15.4 8.4s-5.9 15.8 7 17.6c-2.9 1.1-8.1 11.4 6.6 17.3-4.4 1.1-13.2 52.6 50 20.2 23.5 12.1 36.4 69.1 36.4 69.1l107.7-48.9z" fill="url(#a)"/>
</svg>
